<svg width="26" height="26" viewBox="0 0 26 26" fill="none" xmlns="http://www.w3.org/2000/svg">
<path id="Vector" d="M0.695889 0.695889C0.916178 0.475286 1.1778 0.300276 1.46578 0.180869C1.75377 0.0614618 2.06246 0 2.37422 0C2.68598 0 2.99468 0.0614618 3.28266 0.180869C3.57065 0.300276 3.83227 0.475286 4.05256 0.695889L12.6659 9.30606L21.2792 0.695889C21.4996 0.475487 21.7613 0.300655 22.0492 0.181374C22.3372 0.0620934 22.6459 0.000700639 22.9576 0.000700633C23.2693 0.000700627 23.5779 0.0620934 23.8659 0.181374C24.1538 0.300655 24.4155 0.475487 24.6359 0.695889C24.8563 0.916291 25.0311 1.17795 25.1504 1.46591C25.2697 1.75388 25.3311 2.06253 25.3311 2.37422C25.3311 2.68592 25.2697 2.99456 25.1504 3.28253C25.0311 3.5705 24.8563 3.83215 24.6359 4.05256L16.0257 12.6659L24.6359 21.2792C25.081 21.7243 25.3311 22.3281 25.3311 22.9576C25.3311 23.5871 25.081 24.1908 24.6359 24.6359C24.1908 25.081 23.5871 25.3311 22.9576 25.3311C22.3281 25.3311 21.7243 25.081 21.2792 24.6359L12.6659 16.0257L4.05256 24.6359C3.60743 25.081 3.00372 25.3311 2.37422 25.3311C1.74473 25.3311 1.14101 25.081 0.695889 24.6359C0.250767 24.1908 0.000700633 23.5871 0.000700633 22.9576C0.000700633 22.3281 0.250767 21.7243 0.695889 21.2792L9.30606 12.6659L0.695889 4.05256C0.475286 3.83227 0.300276 3.57065 0.180869 3.28266C0.0614618 2.99468 0 2.68598 0 2.37422C0 2.06246 0.0614618 1.75377 0.180869 1.46578C0.300276 1.1778 0.475286 0.916178 0.695889 0.695889Z" fill="white"/>
</svg>
