<svg width="44" height="44" viewBox="0 0 44 44" fill="none" xmlns="http://www.w3.org/2000/svg">
<g id="ph:star-fill">
<path id="Vector" d="M40.3048 19.6591L32.5532 26.4241L34.8752 36.496C34.9981 37.0225 34.9631 37.5736 34.7744 38.0803C34.5858 38.587 34.252 39.0268 33.8148 39.3449C33.3775 39.6629 32.8562 39.845 32.3161 39.8684C31.7759 39.8917 31.2408 39.7554 30.7777 39.4763L21.9932 34.1481L13.2276 39.4763C12.7645 39.7554 12.2294 39.8917 11.6893 39.8684C11.1491 39.845 10.6278 39.6629 10.1905 39.3449C9.7533 39.0268 9.4195 38.587 9.23089 38.0803C9.04227 37.5736 9.00721 37.0225 9.13009 36.496L11.4487 26.4344L3.6954 19.6591C3.28532 19.3054 2.98879 18.8385 2.843 18.317C2.6972 17.7955 2.70863 17.2425 2.87585 16.7274C3.04307 16.2124 3.35864 15.7581 3.78298 15.4217C4.20733 15.0853 4.72155 14.8816 5.26118 14.8363L15.4809 13.9511L19.4701 4.43612C19.6784 3.93685 20.0298 3.51038 20.48 3.2104C20.9302 2.91043 21.4591 2.75037 22.0001 2.75037C22.5411 2.75037 23.07 2.91043 23.5202 3.2104C23.9704 3.51038 24.3218 3.93685 24.5301 4.43612L28.5313 13.9511L38.7476 14.8363C39.2872 14.8816 39.8014 15.0853 40.2258 15.4217C40.6501 15.7581 40.9657 16.2124 41.1329 16.7274C41.3001 17.2425 41.3116 17.7955 41.1658 18.317C41.02 18.8385 40.7234 19.3054 40.3134 19.6591H40.3048Z" fill="black"/>
</g>
</svg>
